<?xml version="1.0" encoding="utf-8"?>
<!-- Generator: Adobe Illustrator 27.6.1, SVG Export Plug-In . SVG Version: 6.00 Build 0)  -->
<svg version="1.1" id="Layer_1" xmlns="http://www.w3.org/2000/svg" xmlns:xlink="http://www.w3.org/1999/xlink" x="0px" y="0px"
	 viewBox="0 0 1280 1024" style="enable-background:new 0 0 1280 1024;" xml:space="preserve">
<style type="text/css">
	.st0{fill:#FFC8DD;}
	.st1{fill:#FFFFFF;}
</style>
<path class="st0" d="M71.1,69.3h1137.8c27.3,0,49.4,22.1,49.4,49.4v786.7c0,27.3-22.1,49.4-49.4,49.4H71.1
	c-27.3,0-49.4-22.1-49.4-49.4V118.7C21.7,91.4,43.8,69.3,71.1,69.3z"/>
<path class="st1" d="M1208.9,77.8c22.5,0,40.8,18.3,40.8,40.8v786.7c0,22.5-18.3,40.8-40.8,40.8H71.1c-22.5,0-40.8-18.3-40.8-40.8
	V118.7c0-22.5,18.3-40.8,40.8-40.8H1208.9 M1208.9,60.7H71.1c-31.9,0-58,26.1-58,58v786.7c0,31.9,26.1,58,58,58h1137.8
	c31.9,0,58-26.1,58-58V118.7C1266.9,86.8,1240.8,60.7,1208.9,60.7L1208.9,60.7z"/>
</svg>
