<?xml version="1.0" encoding="utf-8"?>
<!-- Generator: Adobe Illustrator 27.6.1, SVG Export Plug-In . SVG Version: 6.00 Build 0)  -->
<svg version="1.1" xmlns="http://www.w3.org/2000/svg" xmlns:xlink="http://www.w3.org/1999/xlink" x="0px" y="0px"
	 viewBox="0 0 1759.1 1169.5" style="enable-background:new 0 0 1759.1 1169.5;" xml:space="preserve">
<style type="text/css">
	.st0{display:none;}
	.st1{display:inline;fill:#E59A9A;stroke:#000000;stroke-miterlimit:10;}
	.st2{display:inline;}
	.st3{fill:#F0C6B6;}
	.st4{fill:#FFC5DB;}
	.st5{fill:#FFFFFF;}
	.st6{fill:#FFC5DB;stroke:#FFFFFF;stroke-width:5;stroke-miterlimit:10;}
	.st7{font-family:'Geneva';}
	.st8{font-size:48.585px;}
	.st9{fill:none;stroke:#FFFFFF;stroke-width:6;stroke-miterlimit:10;}
</style>
<g id="Layer_2" class="st0">
	<rect class="st1" width="1759.1" height="1169.4"/>
</g>
<g id="Layer_1">
	<g id="Layer_1_00000038414311526181646500000011159945971719165612_" class="st0">
		<g id="Layer_2_00000023270208002964054290000014105472881377613474_" class="st2">
			<rect x="-28.4" y="-127.6" class="st3" width="1674" height="1440"/>
		</g>
		
			<image style="display:inline;overflow:visible;opacity:0.1098;enable-background:new    ;" width="605" height="402" xlink:href="FF57852E19F47006.png"  transform="matrix(2.7669 0 0 2.7669 -28.3506 36.2313)">
		</image>
	</g>
	<g id="Layer_4">
		<path class="st4" d="M1096.7,710.2c-0.4,29.9,6.5,59.9,20,86.6c7.1,14,5.5,32-4,44.5c-9.5,12.5-26.4,18.9-40.3,13.9
			c-32.3,3.8-62.4,22.9-79.5,50.5c-17.1,27.6-20.8,63.1-7.3,94c22.8,6.8,49.7-8.4,58.4-33.5c-3.8-4.8-7.5-9.6-11.2-14.4
			c5.8-1.5,11.7-3,18.1-4.5c1.7-22.4,20.1-40.2,40.2-50.2c20.1-10,42.5-14.2,63.3-22.8s40.9-23.2,46.8-46.3
			c-6.7-38.1-13.4-76.2-20.1-114.3c-2.9-16.8-16.8-31.1-33.4-34.6C1130.9,675.5,1112.5,683,1096.7,710.2z"/>
		<path class="st4" d="M613.5,607c-21,27.8-49,50.2-80.8,64.5c-25.3,11.4-42.9,38.2-42,63.5c5.5,34.9-0.1,71.5-13.3,103.3
			c11.6,33.1,18.8,67.8,22.4,101.1c27.7-4.6,49.2-33.2,45.8-65.4c-10.9,7.9-28.9,1.7-28-11c7.9-37.1,10-75.4,7-112.6
			c19.3-12,40-21.7,59-34.3c18.9-12.6,36.3-28.8,45.3-49.7C637.9,645.5,636.9,619.3,613.5,607z"/>
	</g>
	<g id="Layer_3">
		<path class="st5" d="M211.6,166c-0.9,2.6-1.8,5.2-2.7,7.8"/>
		<path class="st5" d="M383.8,217.8c-12.9,19.2-25.9,38.5-36.8,61c-0.8,16-11.4,31.2-26.7,37.4C303,341.7,288.3,369,279,396.5
			c1.9,14.3,3.7,28.5,5.6,42.8c1.4,10.4,14.6,17.3,23.1,12.5c5.8,3.9,13.6,4.8,20.1,2.3c6.6-2.5,11.8-8.2,14.3-16
			c-0.1-9.7,7.1-18.9,21.3-23.6c36.4-8.8,70.3-27.6,97.6-57.1c12.5,1.8,25,3.7,35,4.9c47.1,49.7,70.7,120.7,64.3,184.4
			c-10.9,33.8,3.4,74,35.4,93.4c-32.4,35.3-64.9,70.5-101.1,107.8c15.8,52.7,48.2,100.2,90.3,133.8c8,11.8,25.6,15.8,38.3,10
			c13.4,4.2,26.9,8.5,41.5,9.2c4.3,10.8,21.9,10.3,28.3,0.7s3.2-23.3-4.4-32.1s-18.5-13.8-27.4-21.8c-12.5,6.6-28.2,6.8-36.9,0.8
			c-35.2-17.3-58.5-56.2-56.8-99.4c49.1,4.7,99.9-17.5,130.7-63.7c78.9,49.6,184.8,52.7,265.4,5.4c27.2,63.3,37.2,134,33.1,202.8
			c-59.7,41.5-112.5,93-152.2,150.1c22.5,14.6,53.5,15,78.7-5c-9.9-1.3-17.2-12.7-14.2-22.2c3-9.5,15.5-14.7,20.4-11.2
			c39.5-47.5,87.9-87.5,139.6-114.7c9.1-16.8,8.1-37.2,5-56.1c-3-18.9-7.9-37.9-5.6-56.8s13.8-38.5,30.8-49.5
			c66.7,15.1,141.5-23.7,167.6-86.8s0.6-143.4-57.3-185c-37.8-31.4-90.3-44.1-145.1-35.3c-64-5.9-127.9-11.7-191.5-20
			c-35.2-5.6-68.7-21.5-90.6-47.1c-39.9-11.8-82.4-14.8-120.5-15.5c-56.2-48.5-112.4-97-167.8-143.6c-23.1-21.7-58.4-29.5-88.4-21.5
			c-9.6-12.6-19.1-25.3-28.7-37.9c2.6,14.4,5.2,28.8,7.9,41.6c-7.4-10.3-14.9-20.7-22.3-31C359.4,171.7,368.8,198.3,383.8,217.8z"/>
		<path class="st5" d="M391.7,226.3c-55.6-15.5-111.2-31-166.9-46.5c44,27.9,88,55.9,132,83.8c10,6.3,25.4,4.6,33.2-3.8
			C397.9,251.5,397.1,237.7,391.7,226.3z"/>
		<path class="st5" d="M1040.2,453.3c5.3,1.8,10.6,3.5,15.9,5.3l5.3,28.8"/>
		<path class="st5" d="M488.5,207.6c-9.8-5.3-12.2-19.7-6.6-29.4c5.6-9.7,17-14.9,28.1-15.9c11.2-1,22.3,1.5,33.2,4.1
			c-13.6-1.1-27.5,5.7-35,17.1c15.3-4.3,32.4-1.3,45.3,7.8c30.4,21.3,74.7,19.9,103.7-3.1c-8.2,18.8-29.8,30.8-51,28
			c24.1,2.6,49.2-6,66.6-22.9c-11.8,9.6-23.5,19.3-36.3,25c32.6-0.5,65.1-5.7,96.2-15.3c-25.5,8.5-50.2,19.5-72.5,30.9
			c23.7-0.1,47.4-0.2,71.2-0.3c-20.8,13.4-39.1,30.5-55.3,49.1c18.1-3.9,36.2-7.8,54.4-11.7c-5.5,3.3-10.9,6.5-17.4,10.5
			c27.4-2.1,55.3,14.7,66.3,40c-7.8-10.3-25.5-10.6-33.6-2.6c16.1,22.5,46.7,33.4,73.4,26.3c-6.6,8.2-18.8,11.2-26.3,4.5
			c5.5,14.4,11,28.8,16.6,43.1c-5.6-15.8-27.8-22.8-41.5-13c-44.1,31.5-106.4,35-153.7,8.6c-47.3-26.4-77-81.3-73.4-135.3"/>
		<path class="st5" d="M1249.9,531.7c-1.5-16.7,6.2-33.9,19.6-44s32.2-12.5,46.6-5.8c16.3-22.6,44.3-36.2,72.2-35.2
			c27.8,1,54.8,16.7,69.4,40.4c-9.2-4.8-18.4-9.6-28.3-14.2c25.3,15.7,43.9,41.7,50.7,70.7c6.7,29,1.4,60.6-16,83.4
			c10.8,12.3,28.3,18.2,44.2,14.9c16-3.3,29.8-15.6,34.9-31.1c4.6,18.2-11.6,38.5-30,41c36.3-7.5,69-31.2,87.4-63.3
			c3.1,25.3-8.2,51.8-28.6,67.1c-20.3,15.3-48.9,18.8-73.2,9c18.5,10.7,33.1,28,40.4,48c-22.3-12.6-44.7-25.3-60.5-38.7
			c-38.8-6.4-73.4-33.8-88.6-70.2c-2.5,18.7,5.2,38.5,19.7,50.6c14.5,12.1,35.4,16.1,57.5,9.8c-26.7,17.6-63.4,18.8-91.2,2.9
			s-45.4-48-46-80c2.3,29-16.4,58.5-43.7,68.8c15.8-10.6,23.4-32,19.7-47.8c-16,5.6-35.2,1.2-47.1-10.9
			C1247.2,585.1,1253.1,566.4,1249.9,531.7z"/>
		<path class="st5" d="M1264.2,568.4c16.7,42.7,4.4,95.1-29.5,126c30.8,1.1,61.1-19.9,70.9-49.2
			C1315.5,615.9,1303.9,580.9,1264.2,568.4z"/>
		<path class="st5" d="M1095.8,618c0,0-1.4-8.1-8.1-2.8c2.9,1,5.7,2,8.6,3c-4.6-0.7-9.2-1.4-13.7-2.1
			C1092.9,621.8,1103.2,627.7,1095.8,618z"/>
		<path class="st5" d="M1291.6,618.9c6.9,25.8,22.3,49.2,43.2,65.8c-24.4-20-35.5-54.9-27-85.2
			C1303.7,605,1299.6,610.5,1291.6,618.9z"/>
		<path class="st5" d="M1237.7,527.6c-2-17.3,4.8-35.4,17.7-47.2s31.6-16.8,48.6-13.2C1271.7,471,1244.4,500.3,1237.7,527.6z"/>
	</g>
	<g id="Layer_5">
		<path class="st4" d="M674,286.3c-18.8,5.8-39.3,6.1-58.3,0.9c19.8,2.4,39.1-7.4,55.6-18.6c16.5-11.3,32.2-24.6,51.2-30.8
			C706.5,254.3,695.7,279.6,674,286.3z"/>
		<path class="st4" d="M671.5,227.9c-14.7,2.1-29.5,4.2-44.2,6.3C642,239.1,658.9,236.7,671.5,227.9z"/>
		<path class="st4" d="M656.9,190c-14.5,20.8-42,31.7-66.8,26.4C614.1,217.2,638.3,207.8,656.9,190z"/>
		<path class="st4" d="M507.6,184.3c8.9-8.3,19.5-14.9,30.9-19.1c-22-2.1-44.4,13.4-50.3,34.7C493.2,193.2,501.6,189.9,507.6,184.3z
			"/>
		<path class="st4" d="M763.7,409.1c-22.1-6.4-40.7-23.8-48.7-45.4c21.2,24,56.8,34.3,87.5,25.3c-11.4,5.8-24.6,8-37.2,6.2
			c6.6,8.9,18,13.9,29,12.8C782.3,408.3,770.2,408.6,763.7,409.1z"/>
		<path class="st4" d="M777.5,318.7c-7.8-9.5-20.3-14.7-32.5-13.7c-12.2,1-23.7,8.4-29.7,19C733.2,316.5,753.2,314,777.5,318.7z"/>
		<path class="st4" d="M355,260.9c6.2-2.5,10.9-8.4,11.8-14.9c-9.3,5.3-21.5,5.4-30.8,0.1c-19.7-11.1-39.5-22.1-59.2-33.2
			C303,229.7,329.2,246.5,355,260.9z"/>
		<path class="st4" d="M360.9,319.9c-0.8-8.2,4.4-16.6,12.1-19.4s17.1,0,21.9,6.7c-14.1,0.7-27.5,9.9-33.1,22.9
			C361.3,327.6,361.4,325.1,360.9,319.9z"/>
		<path class="st4" d="M700.6,686.1c-7-7.3-20.4-6.8-26.8,1c-23,28-54.8,48.7-89.7,58.4c22,5.8,45.7-0.6,65.1-12.4
			C668.6,721.4,684.4,704.6,700.6,686.1z"/>
		<path class="st4" d="M664.8,901.2c2.3,5.9,9.7,9.3,15.5,7.4c5.2-9.1,6.6-20.2,3.9-30.3s-9.6-19-19-23.8c8.7,10,12.7,24,10.5,37.1
			C674.8,896.8,670.1,901,664.8,901.2z"/>
		<path class="st4" d="M827.5,1002.8c0,0,3.2-2.4,5.7-2"/>
		<path class="st4" d="M918.1,1036c-5.3-1.9-9.5-6.8-10.4-12.4c-1-5.6,1.3-11.6,5.7-15.6c-11.1,17-34.4,24.8-53.3,17.3
			c7.2,8.1,17.3,13.5,28,15.1C898.7,1041.9,909.9,1039.5,918.1,1036z"/>
	</g>
</g>
<g id="text_backings">
	<path class="st6" d="M279.7,128.3H84.2c-12.4,0-22.4-10.1-22.4-22.4V75.2c0-12.4,10.1-22.4,22.4-22.4h195.5
		c12.4,0,22.4,10.1,22.4,22.4v30.6C302.1,118.3,292.1,128.3,279.7,128.3z"/>
	<path class="st6" d="M1125.5,320.5H976.2c-12.4,0-22.4-10.1-22.4-22.4v-95.8c0-12.4,10.1-22.4,22.4-22.4h149.3
		c12.4,0,22.4,10.1,22.4,22.4V298C1147.9,310.4,1137.9,320.5,1125.5,320.5z"/>
	<text transform="matrix(1.0024 0 0 1 971.6638 234.7138)"><tspan x="0" y="0" class="st5 st7 st8">WHITE</tspan><tspan x="30.8" y="58.3" class="st5 st7 st8">FUR</tspan></text>
</g>
<g id="text">
	<text transform="matrix(1.0024 0 0 1 75.4527 106.9341)" class="st5 st7 st8">ALICORN</text>
	<path class="st6" d="M562.8,1092.1H228.9c-12.4,0-22.4-10.1-22.4-22.4V1039c0-12.4,10.1-22.4,22.4-22.4h333.9
		c12.4,0,22.4,10.1,22.4,22.4v30.6C585.3,1082.1,575.2,1092.1,562.8,1092.1z"/>
	<text transform="matrix(1.0024 0 0 1 220.1867 1070.7358)" class="st5 st7 st8">GOAT HOOVES</text>
	<path class="st6" d="M1667,400.4h-263.7c-12.4,0-22.4-10.1-22.4-22.4v-26c0-12.4,10.1-22.4,22.4-22.4H1667
		c12.4,0,22.4,10.1,22.4,22.4v26C1689.5,390.3,1679.4,400.4,1667,400.4z"/>
	<text transform="matrix(1.0024 0 0 1 1394.5956 383.6635)" class="st5 st7 st8">LION’S TAIL</text>
	<path class="st9" d="M344.6,1016.5c0,0,20.6-145.3,118.7-134.6"/>
	<path class="st9" d="M145,130.4c0,0-6.7,149.3,131.8,113.4"/>
	<path class="st9" d="M1050.8,320.5c0,0-43.8,30.4-58.4,79.9"/>
	<path class="st9" d="M1559.9,400.4c0,0,24.9,90.6-51.8,135.8"/>
</g>
</svg>
