<?xml version="1.0" encoding="utf-8"?>
<!-- Generator: Adobe Adobe Illustrator 24.2.0, SVG Export Plug-In . SVG Version: 6.00 Build 0)  -->
<svg version="1.1" xmlns="http://www.w3.org/2000/svg" xmlns:xlink="http://www.w3.org/1999/xlink" x="0px" y="0px" width="1920px"
	 height="1080px" viewBox="0 0 1920 1080" style="enable-background:new 0 0 1920 1080;" xml:space="preserve">
<style type="text/css">
	.st0{fill:url(#SVGID_1_);}
	.st1{fill:#CDB4DB;}
	.st2{fill:#BDE0FE;}
	.st3{fill:#FFC8DD;}
	.st4{fill:#FFAFCC;}
	.st5{opacity:0.8118;fill:#FFC8DD;}
	.st6{opacity:0.7294;fill:#FFE3EE;}
	.st7{fill:#FFE3EE;}
	.st8{opacity:0.549;fill:#DEEFFF;}
	.st9{fill:#DBCAE6;}
	.st10{fill:#DEEFFF;}
</style>
<g id="Layer_1">
	<linearGradient id="SVGID_1_" gradientUnits="userSpaceOnUse" x1="960" y1="-6.5907" x2="960" y2="1347.0361">
		<stop  offset="0" style="stop-color:#A2D2FF"/>
		<stop  offset="1" style="stop-color:#FFAFCC"/>
	</linearGradient>
	<rect class="st0" width="1920" height="1080"/>
</g>
<g id="Layer_10">
</g>
<g id="Layer_12">
	<path class="st1" d="M585.07,686.3c-26.05-116.44-120.42-201.18-237.78-222.67c-117.36-21.49-262.87,55.52-321.76,156.2
		c-19.74,1.53-27.47-30.95-54.53-30.14C35.8,439.78,216.16,350.32,374.73,389.46s276.6,202.23,264.22,365.08
		C622.59,743.11,596.01,735.17,585.07,686.3z"/>
</g>
<g id="Layer_13">
	<path class="st2" d="M624.66,659.96C605.6,523.58,490.45,406.29,354.45,384.7C218.44,363.12,72.64,439,22.98,558.66
		c-21.72-1.01-43.43-2.01-61.29,1.01C8.38,444.73,114.28,355.74,235.55,329.54C356.81,303.35,490,340.7,579.97,426.12
		s134.16,216.5,115.63,334.66c-25.39,2.37-51.64-9.7-66.37-30.52S611.86,680.67,624.66,659.96z"/>
</g>
<g id="Layer_14">
	<path class="st3" d="M-23.8,535.91c183.77-394.94,791.34-190.89,723.56,237.95c25.51,1.71,50.01-15.57,67.51-14.97
		c14.36-163.84-66.48-332.63-203.13-424.15S240.64,232.75,94.6,308.4C-2.13,358.52-59.86,474.62-23.8,535.91z"/>
</g>
<g id="Layer_15">
	<path class="st4" d="M761.43,698.06c-4.35-430.2-641.88-655.8-848.88-120.07c-15.52-13.5-43.04-47.01-51.65-54.92
		c56.19-145.42,185.52-260.4,336.52-299.18s319.73-0.34,439.03,100.02s186.07,260.01,173.72,415.42
		C797.52,736.3,761.84,738.92,761.43,698.06z"/>
</g>
<g id="Layer_9">
	<g id="Layer_2">
		<path class="st5" d="M1927.67,575.37c-6.89-109.37-160.57-79.38-127.32,26.17c-30.96-27.59-85.73-1.29-83.27,37.99
			c-103.61-9.33-182.91,113.56-123.13,202.36c-70.51-37.79-133.04,46.15-126.16,113.55c92.53,485.99,754.96,157.72,500.81-291.05"/>
		<path class="st5" d="M1465.3,795.58c32.03-88.9-104.47-119.84-110.22-22.7c-90.75-231.26-388.97-208.06-337.71,9.96
			c-38.37-65.8-139.66-27.64-120.91,50.93c-17.07-225.19-293.41-268.32-197.92,131.88c-12.22-3.84-24.44-7.68-36.66-11.52
			c-66.86,268.33,645.93,181.68,799.4,160.78C1637.57,1074.5,1617.88,853.32,1465.3,795.58z"/>
		<path class="st5" d="M1644.34,863.28c11.04-33.87-4.04-74.39-34.55-92.79c-70.69-42.58-152.63,41.9-107.95,111.25
			c-32.9-48.59-93.93,4.47-62.82,56.05c37.3,55.08,129.89,69.59,182.38,30.38C1657.07,940.79,1667.88,881.61,1644.34,863.28z"/>
		<path class="st5" d="M-71.53,592.94c96.34-189.98,391.45-108.39,367.55,110.19c27-79.19,138.05-46.55,124.93,34.23
			c-1.64-35.17-1.26-70.43,1.13-105.56c12.54-105.02,165.37-90.79,155.87,13.27c55.72-35.99,125.65,33.66,78.03,88.19
			c137.84-97.2,206.4,146.83,172.21,248.09c-49.6,193.28-277.42,245.76-444.68,295.82c-193.45,52.66-459.97-46.34-459.77-272.91
			C-73.41,885.15-148.37,748.06-71.53,592.94z"/>
	</g>
	<g id="Layer_7">
		<path class="st6" d="M1712.61,637.65c3.97,13.65,7.95,27.29,11.92,40.94c-25.06-9.35-53.54-9.19-78.49,0.46
			c-24.95,9.65-46.13,28.69-58.38,52.47c6.37-27.77,20.91-54.12,43.14-71.94C1653.04,641.76,1683.26,633.27,1712.61,637.65z"/>
		<path class="st6" d="M1791.51,592.8c5.99,10.19,11.98,20.38,17.97,30.57c-23.35-21.57-64.53-19.31-85.37,4.7
			c2.42-14.29,12.09-27.17,25.14-33.47C1762.3,588.29,1778.39,588.71,1791.51,592.8z"/>
		<path class="st6" d="M1798.52,741.18c-30.29-18.51-70.51-19.48-101.66-2.46c-31.15,17.02-52.06,51.39-52.84,86.88
			c11.2-16.3,29.81-27.29,49.49-29.23c19.68-1.93,40.08,5.22,54.23,19.03c-4.37-11.65-0.19-25.95,9.77-33.41
			c28.93-21.65,64.74-33.96,100.87-34.67C1836.65,738.19,1812.12,735.82,1798.52,741.18z"/>
		<path class="st6" d="M1318.47,833.09c-29.3-34.68-75.86-54.01-121.11-50.28c27.4-11.21,58.72-12.56,86.99-3.73
			c28.26,8.83,53.25,27.76,69.4,52.58c10.29-4.88,23.12-3.9,32.55,2.48c9.43,6.38,15.11,17.93,14.41,29.3
			c-18.71-17.07-51.7-14.61-67.68,5.04C1336.14,853.41,1324.69,840.45,1318.47,833.09z"/>
		<path class="st6" d="M1351.4,768.31c-15.7-59.52-58.59-111.3-114.16-137.79s-122.79-27.22-175.32,0.17
			c30.77,0.3,61.34,11.33,85.22,30.75c23.88,19.42,40.9,47.09,46.83,75.86C1247.36,729.87,1303.28,742.13,1351.4,768.31z"/>
		<path class="st6" d="M1465.2,793.5c10.19-17.38,8.4-41-4.3-56.65s-35.44-22.26-54.55-15.87c16.21,3.5,30.76,14.09,39.06,28.44
			c8.31,14.35,10.24,32.24,5.2,48.04C1455.84,796.79,1462.73,797.72,1465.2,793.5z"/>
		<path class="st6" d="M908.32,870.36c-11.54-17.28-32.66-27.7-53.39-26.33c-20.74,1.37-40.3,14.47-49.46,33.12
			c-31.71-11.98-71.55,8.31-80.5,41c26.59-22.68,64.3-31.64,98.25-23.34c21.32-18.83,49.8-29.34,78.24-28.87
			c28.44,0.47,56.56,11.92,77.24,31.44C958.13,877.3,929.29,865.95,908.32,870.36z"/>
		<path class="st6" d="M725.71,673.4c40.97-15.6,90.07-7.37,123.72,20.72c33.65,28.1,50.51,74.94,44.1,118.64
			c-23.55,14.77-58.64,5.88-72.85-15.65C815.8,745.01,771.8,699.19,725.71,673.4z"/>
		<path class="st6" d="M1013.14,781.32c-21.36-20.75-54.42-28.55-82.8-19.55c13.34-10.64,31.57-14.86,48.22-11.16
			C995.21,754.3,1009.94,765.83,1013.14,781.32z"/>
		<path class="st6" d="M578.06,643.75c3.14-35.63-23.13-71.52-58.04-79.3s-73.94,13.56-86.23,47.15
			c23.48-14.86,53.49-18.94,80.08-10.9c26.59,8.05,49.31,28.08,60.61,53.47C575.97,648.69,577.46,643.22,578.06,643.75z"/>
		<path class="st6" d="M661.41,722.57c13.16-14.7,11.34-38.76-0.26-54.72s-30.72-24.87-49.93-29.36
			c17.74,7.15,32.4,21.62,39.76,39.28c7.36,17.65,7.33,38.26-0.08,55.89C655.47,729.93,658.82,725.47,661.41,722.57z"/>
		<path class="st6" d="M297.08,693.51c-8.97,26.87-39.47,44.6-67.26,39.09c-27.79-5.51-49.22-33.53-49.26-59.09
			c7.68-39.85-2.27-82.78-26.71-115.19c-24.44-32.4-62.98-53.78-102.59-54.85c57.45-22.38,126.63-11.26,174.18,27.99
			S315.11,639.46,297.08,693.51z"/>
		<path class="st6" d="M477.23,720.35c-25.98-13.08-60.07-7.59-80.64,12.99c5.84-18.63,21.21-33.98,39.84-39.81s40.01-1.97,55.43,10
			c17.05-6.4,36.96,3.25,47.33,18.23c10.37,14.97,13.07,33.91,13.72,52.11c-4.31-17.19-18.1-31.68-35.05-36.83
			c-16.96-5.15-36.47-0.79-49.62,11.1C476.08,739.38,476.8,725.07,477.23,720.35z"/>
	</g>
</g>
<g id="Layer_3">
	<path class="st4" d="M2030.06,810.46c20.51-48.59-7.99-110.02-56.36-131.05c-48.37-21.03-108.77-3.52-143.33,36.33
		s-44.17,97.93-30.69,148.92c-13.61-28.51-51.02-42.88-80.21-30.82c-29.19,12.06-45.56,48.64-35.08,78.44
		c-50.91-60.6-123.47-106.07-202.43-111.36c-78.97-5.29-162.6,35.41-195.96,107.18s-3.69,170.12,69.01,201.39
		c192.98,83,419.17,85.43,613.89,6.61c51.93-21.02,91.33-70.37,100.32-125.67C2078.21,935.14,2056.49,875.84,2030.06,810.46z"/>
	<path class="st4" d="M1099.23,1083.08c46.64-59.61,22.49-160.25-46.12-192.21c-68.61-31.96-161.19,14.32-176.81,88.38
		c4.29-42.71-28.33-85.92-70.58-93.49c-42.26-7.57-87.85,21.63-98.65,63.17C676.94,831.6,587.8,727.3,471.31,694.09
		s-255.52,15.15-314.06,121.2s-16.87,259.61,93.29,309.97c249.37,114,533.98,149.45,803.7,100.1
		C1102.77,1216.47,1140.4,1167.33,1099.23,1083.08z"/>
	<path class="st4" d="M-151.3,973.28c0.61-71.32,1.22-142.63,1.83-213.95c0.52-60.46,60.59-109.89,121.06-109.82
		s115.78,41.14,145.28,93.92s36.51,115.44,33.68,175.83c7.57-29.42,38.34-50.96,68.57-48c84.45,8.28,149,95.96,141.86,180.51
		c-7.14,84.55-76.71,156.85-158.81,178.3c-82.1,21.45-172.19-3.43-239.79-54.72S-151.95,1048.84-151.3,973.28z"/>
</g>
<g id="Layer_11">
	<path class="st8" d="M138.89,836.48c4.46-45.81-10.04-93.17-39.39-128.62s-73.17-58.54-119.01-62.71
		c48.75,58.71,73.9,136.49,68.74,212.63C68.2,829.39,110.14,819.44,138.89,836.48z"/>
	<path class="st8" d="M518.38,953.01c-1.79-27.89-24.84-52.97-52.49-57.1c-27.65-4.13-57.02,13.11-66.89,39.26
		c-15.94-13.12-38.17-18.21-58.23-13.33c-20.06,4.87-37.48,19.59-45.62,38.56c48.95-8.24,100.14-8.94,147.33,6.48
		c47.19,15.42,90.03,48.48,109.68,94.07C553.36,1018.91,541.07,976.59,518.38,953.01z"/>
	<path class="st8" d="M709.3,942.3c-16.4,29.69-55.6,44.44-87.5,32.93c-31.9-11.51-52.65-47.9-46.03-77.06
		c-1.51-52.3-22.93-103.79-58.95-141.74c-36.03-37.95-86.33-62.01-136.6-70.78c74.36-0.85,148.75,24.85,206.73,71.42
		C644.93,803.65,686.08,870.75,709.3,942.3z"/>
	<path class="st8" d="M875.79,971.08c-1.37,11.29-10.63,21.18-21.81,23.28s-23.4-3.74-26.83-13.99c4.5-25.71-7.01-53.55-28.35-68.58
		c-21.34-15.03-51.43-16.49-74.12-3.59c25.25-25.97,67.06-34.15,100.23-19.6C858.07,903.14,879.64,939.33,875.79,971.08z"/>
	<path class="st8" d="M786.74,1030.35c-0.69-15.43-14.65-29.09-30.09-29.45s-30.02,12.62-31.44,28.01
		c-10.4-11.15-28.03-14.82-42.02-8.75c-13.99,6.07-23.34,21.46-22.3,36.67c28.09-19.77,65.94-24.88,98.26-13.26
		s58.26,39.66,67.32,72.79C833.11,1081.74,815.74,1043.82,786.74,1030.35z"/>
	<path class="st8" d="M1117.31,989.05c-0.37-41.84-26.61-82.38-64.64-99.83c-38.03-17.46-85.88-10.93-117.84,16.06
		c38-5.08,77.7-3.32,113.08,11.44C1083.29,931.48,1113.83,960.48,1117.31,989.05z"/>
	<path class="st8" d="M1682.74,914.7c-29.7,14.51-64.71,17.85-96.62,9.22s-60.46-29.16-72.63-52.38
		c-50.28-41.36-123.87-52.13-179.71-25.37c53.1-37.42,121.43-52.54,185.36-41C1583.07,816.71,1641.8,854.75,1682.74,914.7z"/>
	<path class="st8" d="M1504.19,1077.54c4.47-0.26,8.94-0.53,13.41-0.79"/>
	<path class="st8" d="M1751.54,833.36c-31.38,2.91-59.82,26.52-68.45,56.83c-0.26-17.57,8.13-35.06,21.99-45.85
		C1718.94,833.55,1737.96,829.71,1751.54,833.36z"/>
	<path class="st8" d="M1803.28,779.01c7.79-46.99,44.38-87.98,90.19-101.04c45.81-13.06,98.51,2.47,129.91,38.29
		c-48.9-22.31-109.5,1.35-143.61,42.88c-34.11,41.54-46.64,96.62-52.28,150.06C1810.31,864.23,1797.35,814.75,1803.28,779.01z"/>
	<path class="st8" d="M1809.8,937.72c-13.65-9.34-31.92-11.51-47.39-5.64c-15.46,5.87-27.68,19.63-31.69,35.68
		c-21.27-4.28-44.6,4.18-58.19,21.1c-13.59,16.91-16.82,41.52-8.06,61.37c23.31-35.35,61.09-60.85,102.59-69.24
		c41.51-8.39,86.22,0.44,121.43,23.96c-12.7-26.78-43.89-43.45-73.21-39.15c23.48-12.98,54.98-9.49,75.05,8.3
		c-3.99-20.72-19.53-38.83-39.41-45.92C1831.05,921.11,1807.56,925.31,1809.8,937.72z"/>
	<path class="st8" d="M-52.56,993.69c-7.03-39.89,19.04-82.97,57.64-95.25s84.77,7.83,102.07,44.45
		c2.29-14.57,16.81-26.12,31.52-25.08c63.39,4.49,119.98,57.48,128.63,120.44c-14.86-25.19-30.76-51.44-55.98-66.24
		c-25.22-14.8-62.63-13.19-78.64,11.28c-18.5-17.87-49.19-21.46-71.32-8.35c-22.12,13.11-33.71,41.76-26.92,66.57
		c6.32,23.08-15.12,47.58-38.99,49.16s-46.26-15.32-56.76-36.83S-72.27,1007.23-52.56,993.69z"/>
</g>
<g id="Layer_4">
	<path class="st1" d="M-48.96,1079.7c-35.56-22.46-32.22-81.65,0.6-107.95c32.82-26.3,82.36-22.79,118.58-1.41
		s61.44,57.18,82.43,93.62c106.91-70.9,266.27-45.88,346.31,54.37c26.23,32.85,2.3,90.96-39.46,95.81
		c-166.42,19.32-337.73-5.16-492.07-70.32"/>
	<path class="st1" d="M1482.04,1133.4c-29.79-32.24-52.9-70.16-82.57-102.5s-68.61-59.85-112.46-61.65s-90.63,30.53-92.08,74.4
		c-50.25-73.78-156.32-103.17-237.38-65.75s-127.51,137.19-103.95,223.3"/>
	<path class="st1" d="M1730.87,1154.02c2.34-36.46,4.76-73.38,16.07-108.12c11.32-34.74,32.68-67.65,64.68-85.28
		s75.51-16.65,102.22,8.28c65.95,61.55,103.79,152.11,101.24,242.28"/>
	<path class="st1" d="M1778.06,1113.64c3.4-51.35-26.51-103.36-72.61-126.24c-46.09-22.88-105.61-15.25-144.45,18.51
		c-0.5-66.54-75.19-117.65-140.26-103.7c-65.06,13.95-111.08,80.15-113.19,146.66c-2.11,66.51,33.48,130.31,83.46,174.25
		s113.04,70.27,176.87,89.08"/>
</g>
<g id="Layer_5">
	<path class="st9" d="M1562.71,1005.62c-3.95-26.81-17.46-52.11-37.55-70.3s-46.6-29.13-73.67-30.41
		c-13.56-0.64-25.84,10.44-29.48,23.52c-3.64,13.08,0.04,27.31,6.88,39.04c6.84,11.73,16.59,21.43,26.13,31.09
		C1483.81,1027.74,1534.61,1031.51,1562.71,1005.62z"/>
	<path class="st9" d="M1750.63,1027.16c-23.57-35.33-68.81-54.81-110.68-47.64c-15.35,2.63-24.9,20.41-22.02,35.71
		c2.87,15.31,15.35,27.4,29.49,33.94s29.9,8.42,45.17,9.85c2.82-6.29,9.96-9.71,16.84-10.17c6.87-0.46,13.65,1.49,20.32,3.22
		s13.63,3.26,20.4,1.96s13.31-6.14,14.51-12.92S1759.57,1026.7,1750.63,1027.16z"/>
	<path class="st9" d="M1918.38,975.38c-12.02-12.84-28.53-21.38-45.96-23.77c18.75,17.82,37.49,35.64,56.24,53.46
		C1925.24,993.83,1923.84,981.21,1918.38,975.38z"/>
	<path class="st9" d="M1329.73,978.92c-6.77,15.21-13.55,30.41-20.32,45.62c-17.96-25.64-51.53-39.33-82.3-33.55
		C1255.13,969.03,1295.98,964.92,1329.73,978.92z"/>
	<path class="st9" d="M1193.28,1039.14c-46.14-61.21-132.33-88.84-205.81-65.42c9.4,43.09,46.14,78.92,90.25,88.38
		c31.77,15.81,70.01,18.09,103.43,6.15C1193.2,1063.95,1200.17,1048.27,1193.28,1039.14z"/>
	<path class="st9" d="M988.23,1002.26c-4.7,0.13-9.33-2.84-11.18-7.16c-1.84-4.32-0.78-9.72,3.45-11.2
		C988.17,987.44,992.92,996.41,988.23,1002.26z"/>
	<path class="st9" d="M147.83,1061.61C125.52,997.7,57.59,952.9-9.94,957.56c17.62,7.75,30.43,23.71,39.23,40.83
		s14.25,35.73,21.63,53.51c7.38,17.78,17.12,35.26,32.34,47.05c15.21,11.79,36.89,16.78,54.15,8.26
		C154.67,1098.69,163.69,1074.5,147.83,1061.61z"/>
	<path class="st9" d="M481,1099.67c-58.6-64.58-158.14-88.19-239.5-56.8c64.02,2.63,126.09,36.11,163.44,88.18
		c10.63,14.82,31.54,21.29,48.68,15.06C470.76,1139.88,482.64,1121.5,481,1099.67z"/>
</g>
<g id="Layer_16">
	<path class="st10" d="M1468.18,617.2c3.49-1.31,7.81,1.95,7.49,5.67c-0.32,3.72-5.12,6.21-8.34,4.32
		C1464.11,625.31,1463.47,618.98,1468.18,617.2z"/>
	<circle class="st10" cx="839.97" cy="625.71" r="3.11"/>
	<circle class="st10" cx="949.36" cy="733.27" r="6.05"/>
	<circle class="st10" cx="160.56" cy="136.47" r="5.75"/>
	<circle class="st10" cx="209.16" cy="440.58" r="9.25"/>
	<circle class="st10" cx="382.67" cy="628.16" r="2.45"/>
	<circle class="st10" cx="1686.59" cy="604.63" r="4.53"/>
	<circle class="st10" cx="1781" cy="522.57" r="6.04"/>
	<circle class="st10" cx="1333.73" cy="285.8" r="5"/>
	<circle class="st10" cx="1299.48" cy="585.09" r="10"/>
	<circle class="st10" cx="1720.92" cy="114.04" r="3.61"/>
</g>
</svg>
