<?xml version="1.0" encoding="utf-8"?>
<!-- Generator: Adobe Adobe Illustrator 24.2.0, SVG Export Plug-In . SVG Version: 6.00 Build 0)  -->
<svg version="1.1" xmlns="http://www.w3.org/2000/svg" xmlns:xlink="http://www.w3.org/1999/xlink" x="0px" y="0px" width="1920px"
	 height="1080px" viewBox="0 0 1920 1080" style="enable-background:new 0 0 1920 1080;" xml:space="preserve">
<style type="text/css">
	.st0{fill:#FFC8DD;}
	.st1{fill:url(#SVGID_1_);}
	.st2{fill:#FFAFCC;}
	.st3{fill:#BDE0FE;}
	.st4{fill:#E6F3FF;}
	.st5{opacity:0.8;fill:#DAC1E8;}
	.st6{opacity:0.6118;fill:#FFD6E6;}
	.st7{fill:#CDB4DB;}
	.st8{fill:#C3A1D6;}
	.st9{fill:#FBF5FF;}
	.st10{fill:#FAE6EE;}
</style>
<g id="Layer_2">
	<rect y="578" class="st0" width="1920" height="502"/>
</g>
<g id="Layer_3">
	<linearGradient id="SVGID_1_" gradientUnits="userSpaceOnUse" x1="972.1545" y1="723.9449" x2="972.1545" y2="-414.6231">
		<stop  offset="0" style="stop-color:#FFC8DD"/>
		<stop  offset="1" style="stop-color:#BDE0FE"/>
	</linearGradient>
	<rect x="12.15" y="-13.68" class="st1" width="1920" height="617.36"/>
</g>
<g id="Layer_6">
	<ellipse class="st2" cx="1132.72" cy="926.49" rx="451" ry="226.5"/>
	<ellipse class="st2" cx="961.47" cy="866.49" rx="561.79" ry="191.58"/>
</g>
<g id="Layer_1">
	<ellipse class="st3" cx="960" cy="922.54" rx="585" ry="243"/>
</g>
<g id="Layer_8">
	<path class="st4" d="M786.75,1122.13c-121.27,6.63-244.52-36.1-335.67-116.36c-37.56-33.07-41.42-94.09-17-137.76
		s71.31-71.15,119.85-83.33s99.29-10.95,149.32-9.65c-40.67,4.55-81.89,9.23-119.96,24.25c-38.06,15.03-73.24,41.9-89.21,79.58
		c-15.97,37.68-8.25,86.64,24.37,111.35c113.81,86.2,274.7,105.57,405.71,48.84c-50.15,55.48-131.2,81.02-204.09,64.3"/>
	<path class="st4" d="M777.82,1036.06c-31.81,14.01-68.83,12.07-102.05,1.83c-33.22-10.24-63.45-28.17-93.32-45.95
		c57.18,28.58,127,30.56,185.71,5.27c13.17-5.67,30.3,6.18,29.63,20.5C797.12,1032.04,778.97,1042.25,777.82,1036.06z"/>
	<path class="st4" d="M526.53,955.01c-11.34-6.78-18.56-19.96-18.16-33.17c7.82,13.01,20.23,23.19,34.53,28.3
		c4.48,1.6,4.88,8.64,1.26,11.74c-3.61,3.1-9.28,2.6-13.35,0.14C526.75,959.55,523.92,955.53,526.53,955.01z"/>
	<path class="st4" d="M1177.85,734.04c242.59,55.5,401.32,166.2,137.46,328.59C1359.65,1085.09,1749.66,816.57,1177.85,734.04z"/>
	<path class="st4" d="M1337.68,1012.52c-19.33,36.31-66.8,54.74-105.57,40.99c-5.12-1.81-10.44-4.47-12.8-9.36
		c-2.36-4.89,0.3-12.24,5.72-12.53C1263.27,1029.56,1301.3,1023.53,1337.68,1012.52z"/>
	<path class="st4" d="M936.82,737.54c3.43-3.03,5.19-7.84,4.55-12.37s-3.68-8.65-7.81-10.61c4.05,2.48,8.1,4.95,12.16,7.43
		c3.63,2.22,4.98,7.48,2.86,11.17C946.45,736.84,941.23,738.33,936.82,737.54z"/>
	<path class="st4" d="M885.47,700.39c-28.81,2.13-55.5,22.32-65.4,49.46c5.28-17.09,19.67-30.31,36.01-37.58
		c16.35-7.27,34.56-9.23,52.44-9.53C900.42,698.94,891.5,699.94,885.47,700.39z"/>
	<path class="st4" d="M875.2,722.62c-33.03-3.53-42.62,65.87,53.72,38.64C839.89,766.58,865.02,722.16,875.2,722.62z"/>
	<path class="st4" d="M968.5,765.47c-16.79,13.91-40.65,18.78-61.55,12.56c23.43,11.11,54.11,3.86,70.08-16.57
		C972.01,763.44,966.99,765.42,968.5,765.47z"/>
	<path class="st4" d="M933.97,754.62c13.05-1.69,24.76-11.27,28.99-23.73c3.95,6.61,0.67,15.75-5.54,20.3S943,756.56,933.97,754.62z
		"/>
</g>
<g id="Layer_10">
	<path class="st2" d="M251.35,630.21c22.9-65.14,17.35-139.73-14.94-200.76S145.57,321.87,78.83,304.16
		c22.71,127.98,74.66,250.69,150.74,356.08c-20.66-12.96-32.86-35.5-45.88-56.13c-13.02-20.63-29.6-41.57-53.28-47.43
		s-53.61,12.72-49.62,36.78c5.94,35.82,22.12,71,50.21,94s69.1,31.68,101.97,16.28S285.7,646.55,251.35,630.21z"/>
	<path class="st2" d="M21.51,709.15C51.61,628,53.4,536.66,26.5,454.39c-10.71-32.74-45.29-55.96-79.65-53.47
		c-20.02,113.7,4.12,234.6,66.26,331.91c13.04,20.41,37.27,33.14,61.47,32.3"/>
	<path class="st2" d="M504.96,534.58c-18.51-8.52-28.95-32.26-21.24-51.12c7.71-18.86,33.45-28.27,50.78-17.54
		c17.32,10.73,19.53,39.65,3.18,51.81c-5.63-11.54,0.62-27.27,12.62-31.81c12-4.54,27.09,3.12,30.51,15.49
		c5.31,19.21,9.86,39.24,6.86,58.94c-3,19.71-15.14,39.19-34.06,45.49S510.25,600.31,504.96,534.58z"/>
	<path class="st2" d="M1122.1,477.44c-5.83-36.56-11.66-73.12-17.49-109.69c-6.56,0.1-13.12,0.2-19.68,0.3
		c-17.34,43.24-14.82,93.99,6.71,135.29c0.04-18.32-11.8-36.12-28.71-43.15c-26.43,16.4-36.22,54.79-20.87,81.84
		c15.35,27.06,53.33,38.34,80.96,24.06"/>
	<path class="st2" d="M1046.09,521.47c-7.15,14.03-14.31,28.07-21.46,42.1c2.81-4.45-2.04-11.27-7.16-10.07
		c-12.12,2.82-24.24,5.64-36.36,8.46C1002.81,546.04,1024.52,530.12,1046.09,521.47z"/>
	<path class="st2" d="M973.61,523.36c-18.75,14.53-46.51,16.18-66.86,3.99c25.34-2.27,50.07-11.09,71.13-25.37
		C975.64,510.44,973.39,518.91,973.61,523.36z"/>
	<path class="st2" d="M271.29,647.23c4.54,7.61,9.08,15.23,13.63,22.84"/>
	<path class="st0" d="M613.5,565.2c13.48-21.56,18.8-48.1,14.67-73.19c0.12,14.96-7.47,29.77-19.69,38.4s-28.71,10.84-42.77,5.73
		c9.77-12.04,14.9-27.08,22.22-40.75c7.32-13.67,18.18-26.95,33.3-30.38c15.12-3.43,33.71,8.22,32,23.63
		C650.09,517.12,635.4,544.16,613.5,565.2z"/>
	<path class="st0" d="M970,448.38c-25.86-18.09-63.87-16.3-87.91,4.15c4.67-15.57,12.61-30.82,25.78-40.35
		c13.17-9.52,32.34-11.91,45.6-2.51C966.73,419.08,969.76,441.34,970,448.38z"/>
	<path class="st0" d="M916.15,382.52c-9.76,9.12-24.49,12.53-37.26,8.63c-12.77-3.9-23.09-14.96-26.09-27.97
		c17.73,18.24,44.37,27.37,69.55,23.84C922.62,389.05,922.89,391.08,916.15,382.52z"/>
	<path class="st2" d="M1863.5,627.15c-9.32-73.22-6.75-147.93,7.58-220.34c2.2-11.14,11.5-20.53,22.61-22.86s23.39,2.56,29.88,11.87
		c62.09,89.24,70.29,213.11,20.49,309.75c-11.96,23.21-41.74,35.48-66.57,27.44"/>
	<path class="st2" d="M456.88,643.18c-30.63,35.71-73.26,60.94-119.3,70.61c29.27-29.06,58.54-58.12,87.81-87.18
		C435.64,634.36,451.02,634.42,456.88,643.18z"/>
	<path class="st2" d="M366.57,635.75c-11.89,39.97-50.77,70.33-92.44,72.17C308.34,689.2,338.06,662.33,366.57,635.75z"/>
	<path class="st2" d="M721.73,532.23c0.41,32.86-20.95,64.94-51.43,77.22s-68.11,4-90.61-19.95c23.06,12.98,52.37,10.28,76.52-0.56
		C680.35,578.11,700.44,560.11,721.73,532.23z"/>
	<path class="st2" d="M1011.25,768.72c2.17,6.26,4.33,12.52,6.5,18.78"/>
	<path class="st2" d="M1257.83,599.88c34.93,11.15,75.79,0.87,101.27-25.5c4.02,30.13,8.04,60.27,12.06,90.4
		c-21.36-13.58-42.72-27.16-64.08-40.74c11.9,8.39,26.28,13.23,40.84,13.75c-19.23,21-51.79,25.46-79.16,17.62
		c-27.37-7.85-50.55-25.95-71.8-44.91C1221.75,625.02,1257.99,613.42,1257.83,599.88z"/>
	<path class="st2" d="M1132.4,594.32c11.77,20.57,31.18,36.64,53.59,44.36c22.41,7.72,47.6,7.01,69.54-1.96
		C1215.42,630.02,1177.03,613.29,1132.4,594.32z"/>
	<path class="st2" d="M1133.65,598.2c-5.21,20.91-26.64,34.61-48.02,37.26s-42.79-3.53-63.26-10.24
		C1058.36,639.6,1102.44,630.92,1133.65,598.2z"/>
	<path class="st2" d="M1359.94,605.11c-20.52-0.75-38.65,17.78-41.04,38.18c-2.39,20.4,8.64,40.81,24.81,53.47
		s36.77,18.47,57.19,20.68c-19.92-9.19-36.12-26.15-44.39-46.46C1348.23,650.67,1347.98,627.21,1359.94,605.11z"/>
	<path class="st2" d="M1607.09,638.64c25.64,19.14,51.27,38.27,76.91,57.41c-22-9.66-50.36-1.41-63.75,18.54
		c-14.2,21.16-28.39,42.31-42.59,63.47c-14.51-44.35-4.61-95.86,25.3-131.67c-21.97,35.1-24.6,78.51-26.61,119.87
		c-36.76-22.91-57.89-68.59-51.52-111.44c-2.44,1.97-4.89,3.95-7.33,5.92c13.06-6.3,26.12-12.59,39.17-18.89"/>
	<path class="st2" d="M1545.56,695.15c-17.67,20.98-46.31,32.17-73.52,28.72c-27.21-3.45-52.15-21.44-64.02-46.17
		C1448.89,703.88,1503.68,706.68,1545.56,695.15z"/>
</g>
<g id="Layer_18">
	<path class="st5" d="M463.35,136.69c32.52,158.16,12.19,326.72-57.02,472.61c51.21-30.41,102.42-60.81,153.62-91.22
		c-34.93-10.11-60.06-46.88-56.78-83.1c10.96-121.15,21.92-242.31,32.88-363.46C534.75,118.13,498.08,161.4,463.35,136.69z"/>
	<path class="st5" d="M286.24,137.26c45.05,122.56,50.11,259.45,14.23,385c49.52-51.62,84.38-117.15,99.49-187.07
		c3.76,10.85-3.77,24.14-15.01,26.5c-11.24,2.36-23.48-6.78-24.4-18.22c-7.03-86.78-14.06-173.55-21.09-260.33
		C332.35,105.96,319.06,126.82,286.24,137.26z"/>
	<path class="st5" d="M601.55,18.42c39.87,188.3,8.45,390.81-86.59,558.18c38.98-51.64,95.77-89.58,158.41-105.81
		c18.11-4.69,32.9,24.11,18.53,36.09c-6.09-180.95-12.18-361.9-18.26-542.86C667.81,4.68,619.83,33.32,601.55,18.42z"/>
	<path class="st5" d="M1204.87,83.55c74.83,151.81,62.51,343.03-31.18,483.98c53.57-44,124.37-66.4,193.5-61.24
		c-46.85-70.02-50.07-160.23-41.99-244.09c8.08-83.86,25.86-168.05,15.11-251.61c-1.07,33.26-25.31,64.49-57.25,73.79
		C1251.1,93.69,1213.89,80.34,1204.87,83.55z"/>
	<path class="st5" d="M1137.14,28c-60.67,159.02-57.32,341.46,9.15,498.14c-28.16-9.05-51.47-29.56-79.46-39.11
		c-27.99-9.56-66.63-1.95-74.48,26.57c67.22-159.81,82.08-341.15,41.78-509.77c0.03,24.6,18.8,47.91,42.82,53.19
		S1127.79,48.99,1137.14,28z"/>
	<path class="st5" d="M1241.39,84.95c-25.75,147.42-18.42,300.53,21.29,444.82c-24.27-33.4-79.09-38.35-108.95-9.84
		c17.52-146.27,22.84-294,15.88-441.15"/>
	<path class="st5" d="M1626.37,211.55c81.17,152.36,69.91,349.57-28.09,491.7c9.51-35.59,54.1-56.89,87.76-41.93
		c33.66,14.96,47.72,62.34,27.67,93.24c40.37-50.64,80.73-101.29,121.1-151.93c-64.26-69.14-88.62-165.72-104.54-258.77
		s-26.46-189.42-70.65-272.84c-24.8,47.21-49.61,94.43-74.41,141.64"/>
	<path class="st5" d="M1944.85,77.03c-83.9,186.61-78.89,410.94,13.25,593.63c-77.68,0.53-146.98-75.3-139.49-152.61
		c13.67-141.16,12.67-283.75-3-424.7C1847.46,110.03,1891.64,96.05,1944.85,77.03z"/>
	<path class="st5" d="M1636.47,122.27c-22.46,189.03-17.04,381.34,16.04,568.8c-57.11-15.9-101.05-70.78-104.07-129.98
		c-6.68-130.83-1.08-262.28,16.71-392.06c-17.27,4.97-21.27,31.35-8.27,43.75c13,12.4,35.65,10.13,48.95-1.96s18.2-31.31,17-49.24
		S1615.11,126.57,1636.47,122.27z"/>
	<path class="st5" d="M1379.54,68.45c55.96,156.06,64.48,328.78,24.15,489.59c53.06-79.48,95.55-167.69,110.77-262.03
		c15.22-94.35,1.29-195.46-50.72-275.63C1440.88,38.14,1418.01,55.9,1379.54,68.45z"/>
	<path class="st5" d="M782.57,11.14c32.36,177.6,19.25,363.3-37.74,534.6c44.79-22.41,98.26-26.88,146.15-12.21
		c-23.8-188.67-30.12-379.53-18.84-569.36C850.76-0.42,800.46,13.86,782.57,11.14z"/>
	<path class="st5" d="M979.39,430.22c-15.9-2.98-31.79-5.95-47.69-8.93c-9.39,10.12-18.79,20.25-28.18,30.37
		c3.68-10.45,7.35-20.9,9.15-26.92c-15.38,3.32-30.77,6.64-46.15,9.96c11.84-10.19,23.69-20.38,30.38-30.95
		c-10.3,0.75-20.61,1.49-30.91,2.24c12.59-6.92,25.18-13.84,36.28-21.75c47.54-111.07,45.22-242.4-7.02-354.02
		c42.84,6.42,87.87-3.01,127.35-27.85c-13.17,147.18-12.33,295.61,2.52,442.63C1016.78,443.83,1010.46,436.04,979.39,430.22z"/>
</g>
<g id="Layer_19">
	<path class="st6" d="M998.87,117.89c-9.85,9.21-17.47,20.61-27.44,29.69c-9.97,9.07-23.58,15.84-36.71,12.76
		c-13.12-3.09-22.82-19.62-15.36-30.85c-8.96,18.35-33,27.63-51.96,20.06s-30.02-30.84-23.9-50.32
		c10.07-32.06,42.61-55.61,76.22-55.16s65.5,24.87,74.7,57.19c-5-14.75,8.85-31.6,24.42-31.82c15.57-0.23,29.23,13.51,31.56,28.91
		s-5.13,31.19-16.7,41.61c-11.57,10.42-26.75,16.06-42.03,19.04"/>
	<path class="st6" d="M794.02,84.96c0.13,11.57,0.22,23.39-3.4,34.39c-3.62,10.99-11.71,21.2-22.88,24.21
		c-11.17,3.01-24.94-3.53-27.08-14.9c-27.25,6.65-58.15-11.03-66.24-37.89s7.91-58.65,34.3-68.16S793.31,21.66,794.02,84.96z"/>
	<path class="st6" d="M608.07,36.09c7.38,8.71,14.9,17.68,18.73,28.43s3.22,23.85-4.49,32.27s-23.36,9.19-29.77-0.25
		c3.81-1.42,7.61-2.85,11.42-4.27c3.62,10.41,0.77,22.79-7.04,30.57c-7.81,7.78-20.19,10.6-30.59,6.95
		c-28.78-10.09-42.59-49.34-26.47-75.23C555.97,28.66,597.47,23.57,608.07,36.09z"/>
	<path class="st6" d="M1295.87,87.68c-19.23,0.9-37.05,15.37-41.87,34.01c-4.82,18.64,3.74,39.94,20.12,50.05s39.26,8.23,53.76-4.43
		c3.18,17.38,19.23,31.53,36.87,32.51c17.64,0.98,35.16-11.31,40.24-28.23s-2.76-36.83-18.02-45.73
		c12.44,14.94,30.22,25.93,49.56,27.9c19.34,1.98,39.96-5.93,51.2-21.79s11.31-39.45-1.53-54.04
		c-25.21-28.65-64.7-44.07-102.65-40.06S1310.17,65.18,1295.87,87.68z"/>
	<path class="st6" d="M1236.75,138.99c2.04,26.87-24.51,52.08-51.24,48.64s-46.04-34.54-37.27-60.02s43.14-38.1,66.32-24.35
		c2.77,8.96-4.94,18.79-14.16,20.46c-9.22,1.67-18.66-3.18-24.94-10.13s-10.02-15.78-13.64-24.43c-6.11-14.6-2.51-32.75,8.72-43.91
		c11.23-11.16,29.4-14.65,43.97-8.44c23.13,9.86,41.43,30.41,48.55,54.53C1270.19,115.44,1265.99,142.64,1236.75,138.99z"/>
	<path class="st6" d="M1123.08,41.96c0.95,16.24,0.74,33.04-5.49,48.07s-19.64,28.03-35.84,29.5c-16.2,1.48-33.45-11.95-32.44-28.18
		c5.98,7.14,5.75,18.7-0.5,25.6c-6.25,6.9-17.74,8.26-25.43,3.01c-20.45-13.96-41.06-29.72-51.73-52.06s-7.99-52.95,12.28-67.18
		c29.33-20.59,68.39-26.6,102.55-15.77s62.62,38.25,74.73,71.98"/>
</g>
<g id="Layer_7">
	<path class="st7" d="M1661.7,800.1c81.79-288.47-31.02-621.9-267.54-793.94c152.59-27.79,308.36-38.12,468.65-25.4
		c-44.31,280.02-9.97,572.05,103.2,843.23c-123.51,3.58-244.81,57.74-329.93,147.32C1649.17,907.38,1649.87,841.83,1661.7,800.1z"/>
	<path class="st7" d="M1626.44,98.15c-66.56,2.46-133.47-29.52-178.81-80.86c23.49,211.83-17.07,430.35-116.24,619.51
		c6.16,45.18,56.71,78.77,103.08,68.05c30.99,12.87,65.16,13.68,93.47-4.33c62.93,109.55,40.51-10.1,134.97-20.98
		C1565.5,539.77,1559,317.74,1626.44,98.15z"/>
	<path class="st7" d="M247.52,761.43c-118.38-273.52-70.8-611.48,125.22-837.29C236.4-33.85,87.53-33.44-51.22-83.24
		C27.72,59.69,59.97,227.94,39.47,389.94s-93.65,316.9-208.23,441.99c48.82,71.42,140.62,110.77,226.02,96.86
		C142.65,914.88,217.23,848.45,247.52,761.43z"/>
	<path class="st7" d="M268.79-10.2c122.65,244.45,95.97,556.76-69.71,773.47c61.69-18.14,116.01-60.18,149.98-110.08
		c-0.87,18.87-1.75,37.74-2.62,56.61c29-19.37,57.99-38.75,91.67-58.15c28.61,14.37,64.04,14.28,92.57-0.24
		c-17.99,8.11-41.73-0.95-48.43-18.2c36.15,12.52,78.57,4.89,108.8-19.02c-26.29-10.16-52.58-20.32-70.94-29.14
		c-71.24-198.48-60.95-424.88,32.16-621.22c-21.21,52.31-73.38,90.64-129.64,95.23S308.65,34.31,268.79-10.2z"/>
	<path class="st7" d="M172.91,651.02c71.95-185.48,90.53-391.31,46.71-582.77c37.28-4.29,69.56-36.27,83.93-81.92
		c-10.9,219.6,12.45,440.86,61.9,654.03c-46.75,26.31-93.5,52.63-140.26,78.94c-22.17,12.48-53.85,2.94-65.45-19.7
		C148.13,676.94,158.91,645.66,172.91,651.02z"/>
	<path class="st7" d="M1284.36,562.33c-91.08-184.67-108.5-404.44-48.6-606.72c-38.72,24.68-88.37,31.46-130.55,14.01
		c22.62,167.17,18.81,337.88-11.24,503.87c-10.84,59.87-46.1,114.95-95.94,149.86c50.45,13.67,106.31,6.01,149.3-13.13
		c48.48,25.28,106.44,31.82,159.33,17.99c-11.89-4.4-23.79-8.79-28.88-19.05c28.19,7.98,60.21,0.74,82.22-18.59
		C1334.03,581.23,1308.06,571.89,1284.36,562.33z"/>
	<path class="st7" d="M601.83,574.87c79.75-190.85,90.52-409.68,32.18-605.29c50.95,28.88,123.16,10.66,154.3-38.95
		c-44.4,154.95-59.62,318.21-44.62,478.7c5.79,62,31.3,122,65.09,167.59c-32.97,1.39-66.24-13.64-86.99-39.31
		c-21.03,54.91-93.88,82.63-146.1,55.59C585.48,583.22,595.26,573.24,601.83,574.87z"/>
	<path class="st7" d="M925.91,491.77c70.53-184.27,85.67-389.34,42.98-581.97c5.72,36.67,40.82,66.4,77.93,66
		c37.11-0.4,71.57-30.88,76.5-67.66C1062.68,50,1035.6,206.08,1044.9,360.09c4.1,67.93,35.44,133.84,85.55,179.89
		c-11.19-19.96-34.49-32.45-57.31-30.7c-22.82,1.75-43.95,17.63-48.49,40.88c-32,11.11-67.19,12.85-100.13,4.95
		c18.45-3.83,33.99-19.13,38.13-37.51c-31.96,17.32-73.77,14.55-103.17-6.82C887.53,513.67,921.32,503.78,925.91,491.77z"/>
	<path class="st7" d="M1243.18,538.96c98.37-160.15,125.2-362.48,71.98-542.73c42.74-5.38,85.48-10.77,128.21-16.15
		c-39.3,103.65-34.95,224.98-33.42,335.82s2.47,211.81,76,294.76c-55.8-26.63-103.29-13.56-140.08,36.14
		c4.81-24.47-16.38-43.7-11.57-68.17c-35.8,32.07-95.26,33.29-132.35,2.73C1221.14,563.39,1239.48,544.99,1243.18,538.96z"/>
	<path class="st8" d="M339.69,890.06c-128.89-370.69-138.02-782-25.68-1158.04c-15.01,68.48-74.08,125.13-143.13,137.26
		S26.98-151.69-10.48-210.95c78.04-5.57,152.75,65.64,150.94,143.85c-7.9,339.7-49.9,678.61-125.17,1009.96
		c-7.83,34.46-35.1,60.54-60.31,85.31s-50.98,53.26-54.23,88.45s29.43,74.39,63.07,63.55
		C115.27,1131.36,245.39,1019.7,339.69,890.06z"/>
</g>
<g id="Layer_5">
	<path class="st2" d="M325.74,1003.27c-38.87,69.41-123.85,107.71-202.68,97C44.23,1089.55-25.3,1033.44-58.5,961.15
		s-31.45-158.35-1.6-232.09c12.53-30.95,50.58-48.92,82.44-38.92s52.84,46.47,44.4,79.74c10.14-24.75,40.32-37.4,66.61-32.53
		c26.3,4.88,48.19,24.16,62.08,47.01c13.89,22.85,20.86,49.16,26.94,75.2c6.08,26.04,11.53,52.51,22.93,78.24
		c-4.7-11.88,5.37-26.94,18.15-27.13c12.78-0.19,23.3,14.55,20.47,25.81c-3.37-42.14-1.2-84.72,6.43-126.3
		c2.06-11.22,12.3-20.42,23.68-21.26s22.86,6.74,26.55,17.54c18.44,53.95,22.54,112.72,11.77,168.71
		C349.68,989.13,336.78,1000.44,325.74,1003.27z"/>
	<path class="st2" d="M1938.07,998.03c-34.56,58.04-106.74,91.08-173.26,79.3c-66.52-11.78-122.97-67.59-128.6-137.33
		c-4.64-19.5-9.3-39.16-9.88-59.19c-0.58-20.03,3.2-40.72,14.24-57.44c11.05-16.72,30.17-28.82,50.2-28.12
		c20.03,0.7,39.52,16.21,45.65,35.89c-4.35-33.21-8.72-66.7-6.28-100.11s12.2-67.15,33.32-93.15c21.12-26,54.82-43.04,88.05-38.78
		s63.31,32.9,63.81,62.24c19.65-22.01,60.6-18.22,75.87,7.03c53.51,88.49,59.93,203.71,16.58,297.59
		C1991.55,1001.1,1951.95,1023.93,1938.07,998.03z"/>
	<path class="st2" d="M393.75,839.15c2.38-26.78-14.72-54.13-39.84-63.72c22.26,8.14,40.79,25.96,49.77,47.9
		c0.29-6.87,0.58-13.73,0.88-20.6c2.63,5.8,5.26,11.61,7.89,17.41c2.03-25-8.54-50.7-27.57-67.03
		c23.33,7.49,41.98,28.03,47.19,51.98c0.55,2.53,0.89,5.43-0.69,7.49c-1.57,2.06-5.72,1.79-6.01-0.79
		c-2.45,15.08-15.9,27.67-31.11,29.13c-1.91,4.31-3.82,8.61-5.72,12.92C386.98,846.93,389.36,839.28,393.75,839.15z"/>
	<path class="st2" d="M377.53,867.05c-1.94-14.59-9.12-28.44-19.93-38.44c11.79,19.97,17.2,43.65,15.25,66.76
		C374.92,885.34,378.62,875.26,377.53,867.05z"/>
	<path class="st0" d="M1114.12,636.16c-4.23-37,9.9-75.66,37-101.21c-11.37,25.66-15.99,54.28-13.27,82.22
		c6.88-10.25,13.77-20.5,20.65-30.75c-4.76,6.08-9.79,12.98-9.11,20.68s10.81,14.16,16.33,8.77c17.08-16.67,24.95-42.24,20.19-65.63
		c16.17,28.82,17.85,65.31,4.42,95.5c-32.45-19.29-77.03-15.44-105.68,9.14c7.08-31.34-1.07-65.77-21.47-90.6
		C1085.61,582.76,1103.69,606.47,1114.12,636.16z"/>
	<path class="st0" d="M1073.88,634c-8.39,7.2-21.16,8.81-31.08,3.92c-9.92-4.9-16.4-16.02-15.78-27.06
		c-0.12,3.18-0.24,6.35-0.35,9.53c9.12-8.43,14.84-20.44,15.65-32.83c0.81-12.39-3.3-25.04-11.23-34.59
		c20.49,22.33,32.74,52.06,33.91,82.34c2.91-15.64,12.7-29.88,26.27-38.19C1084.92,609.35,1078.56,621.58,1073.88,634z"/>
	<path class="st0" d="M1423.63,716.23c-30.47-39.63-36.38-96.67-14.69-141.7c-17.23,14.72-26.09,37.38-28.63,59.9
		s0.59,45.25,3.71,67.7c-8.9-11.97-17.8-23.95-26.7-35.92c-1.85,15.83,5.61,32.41,18.7,41.51S1407.24,718.05,1423.63,716.23z"/>
	<path class="st2" d="M1649.5,681.31c10.38-47.57-12.62-100.55-54.46-125.45c51.79,20.95,86.61,77.79,81.77,133.45
		c2.08-15.59,12-29.93,25.87-37.37c-6.59,24.82-13.18,49.64-19.77,74.46c-5.14-12.63-10.27-25.26-15.41-37.89
		c-9.48,12.54-24.84,20.42-40.55,20.81C1634.53,698.44,1642.1,687.56,1649.5,681.31z"/>
	<path class="st2" d="M1558.47,1017.12c10.97-46.04,31.27-89.84,59.3-127.98c-20.08,41.97-35.2,86.32-44.94,131.81
		c10.71-8.53,24.14-13.59,37.82-14.23c-16.56,14.42-33.11,28.84-49.67,43.25c2.46-6.91,4.93-13.82,7.39-20.73
		c-11.01,15.06-22.03,30.12-33.04,45.18c8.78-33.68,5.86-70.29-8.12-102.16C1544.23,982.27,1557.03,999.24,1558.47,1017.12z"/>
	<path class="st2" d="M1471.32,1057.69c7.32-30.96,0.95-64.89-17.08-91.09c20.51,17.32,33.66,43.07,35.67,69.84
		c1.43-9.2,2.85-18.4,4.28-27.6c0.53,8.48,1.06,16.97,1.59,25.45c19.15-30.29,19.82-71.3,1.66-102.2
		c21.49,14.49,32.42,43.02,26.13,68.16S1494.2,1045.39,1471.32,1057.69z"/>
	<path class="st2" d="M373.39,696.47c-0.87-29.63,7.51-59.46,23.68-84.29c-11.21,24.93-15.57,52.9-12.48,80.05
		c7.94-10.79,15.88-21.58,23.82-32.37C406.67,678.96,392.74,696.38,373.39,696.47z"/>
	<path class="st2" d="M330.22,681.93c-1.63-16.42-8.54-32.27-19.47-44.63c8.73,11.12,12.46,26.02,9.99,39.94
		c-2.47,13.92-11.09,26.63-23.1,34.07c5.15-13.31,5.91-28.28,2.14-42.05c-1.8,23.46-3.6,46.92-5.4,70.37
		c9.24-14.25,18.48-28.5,27.72-42.75c-3.73,8.38-7.47,16.77-11.2,25.15c9.44-1.25,18.11-7.34,22.49-15.8
		C337.75,697.77,337.7,687.17,330.22,681.93z"/>
	<path class="st0" d="M414.75,1022.64c-4.93-37.03,10.08-76.11,38.52-100.32c-16.26,35.47-19.91,76.57-10.16,114.36
		c6.9-6.68,13.79-13.37,20.69-20.05c-1.29,13.39-2.58,26.79-3.87,40.18c30.66-9.08,53.58-39.65,53.7-71.62
		c16.42,16.54,20.8,43.81,10.38,64.66c-10.42,20.85-34.86,33.71-57.94,30.51C442.98,1077.13,419.55,1058.71,414.75,1022.64z"/>
</g>
<g id="Layer_9">
	<path class="st2" d="M-73.5,65.37c-4.91,47.35,45.35,91.63,91.7,80.78S89.95,73.32,64.53,33.06
		c32.5,58.51,117.15,80.2,173.77,44.51s73.59-121.4,34.84-175.97C300.98,12.28,439.18,79.57,543.47,33.22s146.97-194,83.49-288.83
		c-27.38,73.92-109.61,115.87-188.34,119.78c-78.73,3.92-155.41-22.64-229.77-48.78s-151.12-52.57-229.83-48.4
		c-78.71,4.17-160.8,46.56-187.7,120.66S-181.46,60.4-73.5,65.37z"/>
	<path class="st2" d="M1988.51,50.46c-3.95,40.48-30.69,77.97-67.69,94.88c-37,16.9-82.85,12.59-116.04-10.93
		c4.21-2.79,8.42-5.57,12.63-8.36c-4.35,40.1-54.55,65.47-91.59,49.52s-54.27-64-40.87-102.04s52.27-63.89,92.41-67.74
		s80.52,11.99,112.01,37.18c-17.84-13.06-14.81-45.41,5.15-54.92c35.76-17.05,78.91-17.8,115.25-2.02s65.23,47.85,77.17,85.62"/>
	<path class="st0" d="M1472.97,55.18c-15.34,59.9-78.19,103.67-139.7,97.29c-22.06-2.29-32.58-35.55-15.85-50.11
		c-16.41,25.42-38.2,48.91-66.65,59.21c-28.45,10.3-64.35,4.08-82.02-20.48c-17.67-24.56-7.34-66.34,21.93-74.01
		c-21.52,31.03-72.96,34.5-98.46,6.65s-17.49-78.79,15.32-97.48c61.45-35.01,136.03-46.32,205.1-31.1S1444.63,1.99,1472.97,55.18z"
		/>
	<path class="st0" d="M1033.83,43.1c2.37,34-24.56,67.05-55.55,68.18c-30.99,1.13-59.85-29.89-59.53-63.99
		c2.9,42-39.19,78.42-76.45,68.65c-37.26-9.77-60.18-58.89-48.76-99.09c11.42-40.2,52.3-66.07,90.27-60.6
		c37.98,5.47,70.26,39.14,80.97,79.58c-9.3-41.92,25.97-88.04,65.13-85.16c39.15,2.88,68.52,53.76,54.23,93.94
		C1069.84,84.8,1016.87,100.27,1033.83,43.1z"/>
	<path class="st2" d="M-105.77,187.85c-12.15,44.09,26.54,94.34,72.28,93.85c45.74-0.49,83.35-51.55,70.26-95.38
		c-0.1,32.09,36.88,56.67,67.85,48.26s50.52-43.17,46.52-75.02s-28-58.99-57.25-72.19S30.97,73.46-0.55,79.48
		s-61.42,18.4-91.07,30.7c-23.45,9.73-41.6,31.36-47.1,56.15S-136.92,218.4-105.77,187.85z"/>
	<path class="st0" d="M682.06-59.06c-33.08-36.12-82.66-58-131.39-53.05c-48.73,4.95-94.62,38.71-109.42,85.4s5.62,103.39,49,126.13
		s104.72,4.49,124.98-40.11c-0.79,6.89-1.57,13.77-2.36,20.66c1.59-28.88,16.7-56.74,40.04-73.81
		c-10.05,19.76,4.79,47.41,26.82,49.95c22.03,2.54,42.77-21.01,37.48-42.54c-1.72,60.01,55.16,113.32,115.2,113.06
		s114.5-49.1,127.01-107.82s-14.18-122.35-61.19-159.67c-47.02-37.33-111.46-49.33-170.4-37.9s-112.31,44.73-153.82,88.1"/>
	<path class="st2" d="M1897.1-3.35c-33.1,48.5-94.84,75.75-152.98,67.52c-58.14-8.23-109.89-51.55-128.22-107.33
		c1.38,89.56-104.88,157.4-190,129.52c-85.12-27.88-132.41-130.55-111.38-217.62s98.92-153.53,185.61-176.03
		s179.98-5.86,261.97,30.22c81.98,36.08,154.38,90.53,224.49,146.27c25.79,20.5,51.16,42.53,68.46,70.57
		c17.3,28.03,25.68,63.22,15.23,94.47s-42.92,55.8-75.46,50.64s-56.23-45.52-39.82-74.08c19.73,41.06-21.32,96.39-66.34,89.4
		S1821.29,28.03,1897.1-3.35z"/>
	<path class="st0" d="M1368.13-6.5c-13.33,21.26-27.45,42.67-47.25,58.1s-46.51,24.1-70.45,16.56s-41.87-34.67-33.95-58.48
		c-52.39,36.82-134.16,20.72-168.69-33.21c-34.53-53.93-14.92-134.93,40.44-167.1c62.74-36.46,141.86-43.34,209.95-18.26
		c68.09,25.08,123.84,81.64,147.94,150.08"/>
	<path class="st2" d="M1723.08,61.69c-20.08,37.32-68.02,57.04-108.55,44.66s-69.26-55.53-65.05-97.7c8.96,7,10.44,21.71,3.07,30.36
		c-7.38,8.64-22.15,9.49-30.46,1.74c-39.35-36.68-36.99-104.63-3.54-146.76s89.95-60.66,143.74-60.33
		c53.8,0.33,106,17.06,156.95,34.33c77.04,26.11,132.03,106.52,128.42,187.78"/>
	<path class="st0" d="M1185.51,58.32c-0.33,12.61-11.03,24.11-23.59,25.34c-12.55,1.23-25.29-7.98-28.06-20.28
		c-12.54,16.18-39.63,18.03-54.26,3.72c-14.63-14.32-13.37-41.44,2.53-54.33c-43.82,1.6-85.62-35.01-89.81-78.66
		c-4.2-43.65,29.86-87.55,73.18-94.33c-39.77,29.46-52.07,90.23-26.87,132.83c15.54,26.28-1.21,65.47-30.94,72.4
		s-62.09-20.82-59.77-51.26c-67.47,24.28-150.99-15.96-174.04-83.86s18.68-150.67,86.98-172.5
		c144.21-46.09,312.36-6.65,421.04,98.76c37.49,36.37,48.36,97.36,25.74,144.44C1285,27.66,1230.59,57.28,1185.51,58.32z"/>
	<path class="st2" d="M252.4,55.79c-26.39-4.01-52.08,24.3-45.54,50.18c6.54,25.88,42.6,38.58,63.92,22.51
		c-13.03,10.51-17.9,29.98-11.36,45.39c6.54,15.41,23.93,25.44,40.54,23.38c24.21-3,48.72,1.45,73.1,0.66
		c24.38-0.79,50.78-8.41,64.27-28.73s4.77-54.58-19.31-58.48c55.27,71.89,156.38,104.83,243.38,79.29
		c21.6-6.34,28.92-36.8,16.79-55.76s-37.07-26.39-59.44-23.9c-22.37,2.49-42.9,13.1-62.85,23.53c24.02,2.95,43.97-28.8,30.89-49.17
		c-21.89-34.08-64.97-53.15-104.92-46.45s-74.44,38.81-83.99,78.16c44.95-14.79,60.02-79.55,31.65-117.42
		c-28.37-37.87-86.67-45.19-128.23-22.58S234.86,45.53,252.4,55.79z"/>
	<path class="st0" d="M821.15-29.35c-30.23,27.76-60.45,55.52-90.68,83.28c-3.07-6.68-6.15-13.36-9.22-20.05
		c-19.62,30.04-64.47,39.91-94.88,20.89s-41.17-63.67-22.74-94.45c25.41-42.45,75.65-68.71,125-65.33
		C777.99-101.65,824.19-68.79,821.15-29.35z"/>
</g>
<g id="Layer_16">
	<g id="Layer_14">
		<path class="st9" d="M476.14,273.46c-17.61,23.25-25.97,53.68-22.81,82.97s17.82,57.09,40.29,72.89
			c12.23,36.13,14.04,75.93,6.09,111.98c10.79,39.71,21.58,79.43,33.7,119.3c5.5,17.7,26.99,28.04,42.03,16.78
			c-6.3-6.92-11.45-14.28-15.37-20.27c-19.83-30.28-22.06-68.27-33.54-106.45c16.78-37.66,24.49-79.55,25.38-118.89
			c16.92-16.2,33.99-32.57,47.09-52.16c13.1-19.59,22.09-42.94,20.85-66.69s-14.14-47.57-38.78-57.89
			C546.47,235.26,497.65,245.05,476.14,273.46z"/>
		<path class="st9" d="M531.42,505.98c13.38,47.45,26.75,94.91,40.03,143.39c12.82,15.15,22.57,24.99,43.06,25.58
			c13.28-23.79-26.13-26.55-37.4-134.88c18.36-44.93,27.65-93.76,27.12-142.49c-0.15-13.76-9.94-26.81-22.84-30.46
			c-12.9-3.65-27.8,2.43-34.77,14.17C525.45,416.99,518.43,459.9,531.42,505.98z"/>
		<path class="st9" d="M592.37,457.35c31.07,32.51,81.24,43.94,116.83,17.57c28.6-35.99,33.6-90.01,12.12-130.91
			s-68.14-66.21-113.09-61.34c-24.31,2.64-46.88,18.62-57.94,41.05c-11.06,22.43-10.28,50.59,2.02,72.33"/>
		<path class="st9" d="M652.49,473.35c15.81,18.68,45.15,23.3,61.54,9.33c5.27,37.19,10.55,74.38,18.47,111.62
			c14.36,23.95,14.11,56.35,2.66,78.08c-1.73,8.58,2.83,18.08,10.5,21.89c7.67,3.81,17.74,1.57,21.28-6.62
			c-3.73-28.38-7.45-56.76-11.81-87.2c5.79-58.39,11.59-116.78,17.38-175.17c2.59-26.06-14.28-52.8-38.47-61
			c-24.18-8.2-53.21,3-66.19,25.53C655.36,411.49,647.27,435.85,652.49,473.35z"/>
		<path class="st9" d="M755.89,488.13c8.78,33.22,17.55,66.44,27.76,101.68c-23.92,24.2-37.91,58.48-36.35,91.76
			c28.14-27.29,49.27-62.15,61.04-100.21c-8.12-34.13,0.13-71.96,21.64-99.26c18.25-23.16,16.16-57.99,2.71-84.4
			c-13.45-26.41-36.17-46.31-58.34-65.52c-17.98-15.58-47.5-10.16-63.41,7.64c-15.91,17.8-19.8,44.28-15.76,68.1
			c4.05,23.82,15.01,45.7,25.83,67.17"/>
		<path class="st9" d="M804.58,480.75c12.7,37.65,29.82,73.71,51.91,107.69c-9.27,16.7-12.1,37.06-7.75,55.76
			c4.35,18.7,15.83,35.54,31.51,42.18c5.29,15.11,14.2,28.86,27.13,37.74c4.6-2.45,9.2-4.91,12.94-7.03
			c8.99-0.26,17.37-7.41,19.27-16.46s-2.83-19.12-11.27-23.33c6.39-30.08,7.55-61.32,3.17-91.42c12.02-14.62,18.11-34.25,14.5-54.66
			c-8.18,5.76-16.36,11.52-26.08,16.19c-2.88-45.51-13.36-90.5-31.9-133.07c-19.18-55.7-57.96-104.02-106.25-132.43
			c-12.7-8.77-29.62-5.74-44.4-1.74c-14.79,4-30.92,8.57-44.13,2.79c-28.67-0.66-55.2-14.59-82.33-24.17s-58.99-14.34-83.02,1.77"/>
		<path class="st9" d="M497.23,265.76c-22.59-5.52-48.11,8.91-55.68,31.49c-19.51,58.18-13.98,124.74,15.7,176.55
			c0.61,20.62-2.66,41.35-9.56,60.72c16.63-21.86,21.75-50.69,23.11-78.4c1.36-27.72-0.48-55.76,4.5-83.04"/>
		<path class="st9" d="M445.07,295.43c-29.54,59.31-35.01,130.84-14.83,194.17c-10.95-20.29-10.14-45.33-4.29-67.75
			s16.27-43.24,24.02-65.03C457.72,335.02,462.79,311.2,445.07,295.43z"/>
		<path class="st9" d="M445.34,390.83c-0.8,38.55,10.84,76.05,17.78,113.95c6.94,37.89,8.66,79.35-10.15,112.71
			c15.47-29.42,15.12-67.01-1.17-94.99C426.48,479.31,424.71,422.52,445.34,390.83z"/>
		<path class="st9" d="M437.22,378.91c-15.2,55.62-11.97,116.4,9.05,169.98C422.46,494.07,457.74,426.78,437.22,378.91z"/>
		<path class="st9" d="M458.69,477.48c19.5,35.09,26.19,77.51,18.47,117.13c6.02-19.34,2.32-40.45-3.59-59.82
			S459.57,496.58,458.69,477.48z"/>
		<path class="st9" d="M907.41,593.09c30.09,7.42,60.18,14.84,90.22,22.18c-29.83,11.83-60.72,20.81-92.08,25.7
			c-8.05-5.48-13-15.45-12.61-25.37S899.08,596.15,907.41,593.09z"/>
		<path class="st9" d="M912.13,557.59c16.49-26.51,18.94-61.68,6.29-90.35c4.82,14.1,1.4,30.83-8.53,41.75
			c3.71-38.43,7.42-76.85,11.13-115.28c-21.44,27.54-29.86,65.32-22.23,99.72c-7.68-14.23-9.27-31.8-4.26-47.24
			c9.42-29.05-3.15-64-28.7-79.74c14.75,17.25,21.45,41.47,17.73,64.12"/>
	</g>
	<g id="Layer_15">
		<path class="st10" d="M996.94,615.41c-25.71,7.28-53.02,8.49-78.75,2.87c-0.79,11.3,5.05,22.83,14.53,28.52
			c0.8-3.3,1.61-6.6,2.87-10.22C955.93,631.63,975.87,624.97,996.94,615.41z"/>
		<path class="st10" d="M763.16,517.78c-6.54-13.76-13.08-27.51-19.62-41.27c-1.37,41.72,2.75,83.63,12.22,124.22
			C758.23,572.26,760.69,543.79,763.16,517.78z"/>
		<path class="st10" d="M815.57,510.12c-4.49-12.49-8.99-24.98-13.48-37.47c-6.05,18.23-11.07,37.07-11.48,56.33
			c-0.41,19.26,4.13,39.12,15.58,54.36C802.27,559.03,805.99,533.47,815.57,510.12z"/>
		<path class="st10" d="M471.52,403.74c-1.04-23.78-2.07-47.56-3.11-71.34c-22.84,48.32-25.98,106.12-8.51,156.75
			c-1.9-9.46-3.79-18.91-5.69-28.37c-10.04,26.92-4.13,59.41,14.7,80.78c-1.98-12.99-3.96-25.97-5.95-38.96
			c5.66,13.56,11.33,27.12,16.99,40.68c-10.54-39.5-13.63-81.09-8.66-118.68C471.17,415.52,471.64,406.48,471.52,403.74z"/>
		<path class="st0" d="M892.57,658.04c-5.33,2.47-12.26,0.42-15.51-4.57c0.64,3.18,1.87,6.32,4.11,8.61
			c2.24,2.29,5.61,3.56,8.64,2.65s5.32-4.33,4.51-7.46C893.12,657.83,891.91,658.4,892.57,658.04z"/>
		<path class="st10" d="M467.69,473.89c10.76-27.24,10.01-59.04-2.01-85.72C465.81,419.59,465.94,451,467.69,473.89z"/>
		<path class="st10" d="M536.25,525.83c3.96-31.41-2.9-64.14-19.09-91.08c15.48,37.79,17.75,81.15,6.29,120.42
			C529.18,544.29,535.29,533.46,536.25,525.83z"/>
		<path class="st10" d="M571.04,648.84c-1.43-5.2-2.87-10.39-3.6-15.09c13.34,13.88,30.66,23.65,49.44,27.46
			c-0.64-2.27-1.27-4.55-1.91-6.82c4.7,5.44,5.11,14.28-0.12,20.53C598.02,673.58,576.12,667.26,571.04,648.84z"/>
		<path class="st10" d="M561.98,659.73c-3.08,5.48-9.33,8.91-15.47,8.48c-6.14-0.42-11.89-4.68-13.52-9.43
			c1.47,3.98,2.94,7.96,4.43,11.91c9.56,9.83,25.05,12.97,37.14,7.46C573.67,670.28,569.25,662.91,561.98,659.73z"/>
		<path class="st10" d="M763.18,664.85c3.06,4.33,0.64,11.21-4.14,13.34c-4.78,2.13-10.7-0.01-13.94-4.2
			c-3.25-4.19-4.1-9.94-3.64-15.57c-2.43,5.63-4.87,11.26-6.52,16.97c-1.17,8.25,3.99,16.98,11.65,19.71
			c7.66,2.73,16.97-0.83,21.25-8.32C768.67,679.48,767.37,671.92,763.18,664.85z"/>
		<path class="st10" d="M923.14,718.36c2.07,3.41,0.03,8.63-3.76,9.62c-3.79,0.99-8-2.58-7.78-6.6
			C914.68,717.46,921.2,715.15,923.14,718.36z"/>
		<path class="st10" d="M599.35,462.48c-18.78-19.39-37.56-38.79-56.34-58.18c2.63,18.26,5.27,36.6,10.62,54.21
			c5.35,17.62,13.55,34.62,26.03,47.88c3,3.19,9.22,1.55,10.35-2.74C593.15,491.78,596.29,479.91,599.35,462.48z"/>
	</g>
</g>
<g id="Layer_17">
	<path class="st2" d="M538.93,669.58c-6.59-20.71-23.2-37.97-43.64-45.34c15.04,14.18,24.84,33.8,27.15,54.35
		c-5.87-5.66-11.74-11.32-17.61-16.98c5.12,7.84,10.24,15.69,15.36,23.53c-5.09-5.24-14.98-4.35-19.05,1.71
		c12.11-2.56,25.25,0.23,35.28,7.48c7.07-8.49,22.18-8.12,28.82,0.71c4.04-7.27,12.27-12.01,20.59-11.85
		c-5.38,1.7-10.76,3.4-16.13,5.09c3.19-9.39,9.83-17.57,18.38-22.6c-13.19-0.21-26.33,6.11-34.4,16.55
		c-3.79-5.32-7.58-10.64-11.36-15.96c-0.07,2.05-0.15,4.1-0.22,6.15C540.66,671.66,539.34,670.87,538.93,669.58z"/>
	<path class="st2" d="M616.6,674.97c0.27-15.89,11.42-31.02,26.52-35.98c-9.78,12.16-16.82,26.5-20.47,41.66
		c3.83-4.56,10-7.04,15.92-6.39c-8.14,4.23-16.28,8.46-24.43,12.69c-2,1.04-4.79,0.1-5.75-1.94c-0.96-2.04,0.09-4.79,2.17-5.67
		c-4.44-1.19-9.4-0.31-13.16,2.32c-1.82-10.49-8.1-20.13-16.96-26.03C593.52,660,605.84,666.63,616.6,674.97z"/>
</g>
</svg>
